<svg width="24" height="25" viewBox="0 0 24 25" fill="none" xmlns="http://www.w3.org/2000/svg">
<path d="M22.0001 17.6701V20.6701C22.0012 20.9486 21.9441 21.2243 21.8326 21.4794C21.721 21.7346 21.5574 21.9637 21.3521 22.152C21.1469 22.3402 20.9046 22.4836 20.6408 22.5728C20.377 22.662 20.0974 22.6952 19.8201 22.6701C16.7429 22.3357 13.7871 21.2842 11.1901 19.6001C8.77388 18.0648 6.72539 16.0163 5.19006 13.6001C3.50003 10.9913 2.4483 8.02109 2.12006 4.9301C2.09507 4.65356 2.12793 4.37486 2.21656 4.11172C2.30518 3.84859 2.44763 3.60679 2.63482 3.40172C2.82202 3.19665 3.04986 3.03281 3.30385 2.92062C3.55783 2.80843 3.8324 2.75036 4.11006 2.7501H7.11006C7.59536 2.74532 8.06585 2.91718 8.43382 3.23363C8.80179 3.55008 9.04213 3.98954 9.11005 4.4701C9.23668 5.43016 9.47151 6.37282 9.81006 7.2801C9.9446 7.63802 9.97372 8.02701 9.89396 8.40098C9.81421 8.77494 9.62892 9.11821 9.36005 9.3901L8.09006 10.6601C9.51361 13.1636 11.5865 15.2365 14.0901 16.6601L15.3601 15.3901C15.6319 15.1212 15.9752 14.9359 16.3492 14.8562C16.7231 14.7764 17.1121 14.8056 17.4701 14.9401C18.3773 15.2786 19.32 15.5135 20.2801 15.6401C20.7658 15.7086 21.2095 15.9533 21.5266 16.3276C21.8437 16.7019 22.0122 17.1797 22.0001 17.6701Z" stroke="#0B0E13" stroke-width="1.5" stroke-linecap="round" stroke-linejoin="round"/>
</svg>
